<?xml version="1.0" encoding="iso-8859-1"?>
<!-- Generator: Adobe Illustrator 19.0.0, SVG Export Plug-In . SVG Version: 6.00 Build 0)  -->
<svg version="1.1" id="Layer_1" xmlns="http://www.w3.org/2000/svg" xmlns:xlink="http://www.w3.org/1999/xlink" x="0px" y="0px"
	 viewBox="0 0 496.2 496.2" style="enable-background:new 0 0 496.2 496.2;" xml:space="preserve">
<path style="fill:#FABC3D;" d="M496.2,248.1C496.2,111.1,385.1,0,248.1,0S0,111.1,0,248.1s111.1,248.1,248.1,248.1
	S496.2,385.1,496.2,248.1z"/>
<path style="fill:#48A1AF;" d="M267.7,60c0,1.3-1,2.3-2.3,2.3h-34.6c-1.3,0-2.3-1-2.3-2.3v-3.2c0-1.3,1-2.3,2.3-2.3h34.6
	c1.3,0,2.3,1,2.3,2.3V60z"/>
<path style="fill:#E3EBEE;" d="M305.9,172.8c0-60.4-39.2-98.6-39.2-98.6c-2.1-3.6-1.5-28.7-1.5-28.7h-34c0,0,0.5,25.1-1.5,28.7
	c0,0-39.2,39-39.2,98.6c0,59.7,7.1,67,7.1,95.1c0,10.7-7.6,23-7.6,59.3c0,13.5,0,107.3,0,107.3s5,26.7,58.2,26.7l0,0l0,0l0,0l0,0
	c53.2,0,58.2-26.7,58.2-26.7s0-93.8,0-107.3c0-35.3-7.6-48.5-7.6-59.3C298.7,239.1,305.9,233.2,305.9,172.8z"/>
<path style="fill:#F7FBFC;" d="M248.1,45.5h-17c0,0,0.5,25.1-1.5,28.7c0,0-39.2,39-39.2,98.6c0,59.7,7.1,67,7.1,95.1
	c0,10.7-7.6,23-7.6,59.3c0,13.5,0,107.3,0,107.3s5,26.7,58.2,26.7l0,0l0,0l0,0l0,0C248.1,461.2,248.1,45.5,248.1,45.5z"/>
<path style="fill:#48A1AF;" d="M269.2,64.6c0,1.4-1.1,2.5-2.5,2.5h-37.2c-1.4,0-2.5-1.1-2.5-2.5v-3.4c0-1.4,1.1-2.5,2.5-2.5h37.2
	c1.4,0,2.5,1.1,2.5,2.5V64.6z"/>
<path style="fill:#5CB6BF;" d="M248.1,67.1h-18.5c-1.4,0-2.5-1.1-2.5-2.5v-3.4c0-1.4,1.1-2.5,2.5-2.5h18.5V67.1z"/>
<path style="fill:#ABD6D6;" d="M266.6,74c-0.3-0.6-0.5-1.5-0.7-2.7h-35.6c-0.2,1.1-0.4,2-0.6,2.6V74H266.6z"/>
<path style="fill:#BFE2E1;" d="M248.1,71.3h-17.8c-0.2,1.1-0.4,2-0.6,2.6V74h18.4V71.3z"/>
<path style="fill:#48A1AF;" d="M270.3,66.4c0,0.4-0.3,0.7-0.7,0.7h-43c-0.4,0-0.7-0.3-0.7-0.7v-1c0-0.4,0.3-0.7,0.7-0.7h43
	c0.4,0,0.7,0.3,0.7,0.7V66.4z"/>
<path style="fill:#5CB6BF;" d="M248.1,64.7h-21.4c-0.4,0-0.7,0.3-0.7,0.7v1c0,0.4,0.3,0.7,0.7,0.7h21.4V64.7z"/>
<path style="fill:#48A1AF;" d="M262.2,41.5H234c-7.7,0-7,5.7-7,5.7s0,8,0,8.9c0,0.9,0.3,1.2,1.2,1.2s38.6,0,39.6,0
	c1.1,0,1.3-0.5,1.3-1.3s0-8.8,0-8.8S270,41.5,262.2,41.5z"/>
<path style="fill:#5CB6BF;" d="M248.1,41.5h-14c-7.7,0-7,5.7-7,5.7s0,8,0,8.9c0,0.9,0.3,1.2,1.2,1.2c0.5,0,10.1,0,19.8,0V41.5z"/>
<path style="fill:#9CC9D3;" d="M305.9,172.8c0-36.9-14.6-65.5-26-82.2l-63.2-0.2c-11.4,16.8-26.3,45.7-26.3,82.4
	c0,59.7,7.1,67,7.1,95.1c0,10.7-7.6,23-7.6,59.3c0,13.5,0,107.3,0,107.3s5,26.7,58.2,26.7l0,0l0,0l0,0l0,0
	c53.2,0,58.2-26.7,58.2-26.7s0-93.8,0-107.3c0-35.3-7.6-48.5-7.6-59.3C298.7,239.1,305.9,233.2,305.9,172.8z"/>
<path style="fill:#B9E4EA;" d="M248,90.5l-31.4-0.1c-11.4,16.8-26.3,45.7-26.3,82.4c0,59.7,7.1,67,7.1,95.1c0,10.7-7.6,23-7.6,59.3
	c0,13.5,0,107.3,0,107.3s5,26.7,58.2,26.7l0,0l0,0l0,0l0,0C248.1,461.2,248,90.5,248,90.5z"/>
<g>
</g>
<g>
</g>
<g>
</g>
<g>
</g>
<g>
</g>
<g>
</g>
<g>
</g>
<g>
</g>
<g>
</g>
<g>
</g>
<g>
</g>
<g>
</g>
<g>
</g>
<g>
</g>
<g>
</g>
</svg>
